<?xml version="1.0" encoding="utf-8"?>
<!-- Generator: Adobe Illustrator 27.0.1, SVG Export Plug-In . SVG Version: 6.00 Build 0)  -->
<svg version="1.1" id="Ebene_1" xmlns="http://www.w3.org/2000/svg" xmlns:xlink="http://www.w3.org/1999/xlink" x="0px" y="0px"
	 viewBox="0 0 499 130" style="enable-background:new 0 0 499 130;" xml:space="preserve">
<style type="text/css">
	.st0{fill:#FEF8D3;}
</style>
<path class="st0" d="M458.5-230.8c14.8,0,25.5-7.6,25.5-19.5c0-8-5.9-12.7-15.8-15.4l-13.8-3.5c-5.2-1.4-7.2-2.7-7.2-5.4
	c0-3.8,4.2-5.4,10.4-5.4c6.9,0,13.3,3.3,17.1,7.6l7-8.4c-5.7-5.9-14-8.9-24.3-8.9c-14.2,0-23.7,6.6-23.7,16.5
	c0,8,5.6,12.6,14.3,14.8l15.6,4.2c4.3,1.2,6.9,2.9,6.9,6.1c0,5.2-5.5,7.5-12.2,7.5c-8.6,0-15.8-4.2-20.8-11.5l-7.5,8.6
	C435.8-235.9,446.2-230.8,458.5-230.8 M355.3-302c7.9,0,13,5.5,14.1,13.1h-28.5C342.3-296.5,347.1-302,355.3-302 M382.6-282.9
	c0-16.8-9.7-28.9-27.2-28.9c-17.4,0-29,12.1-29,29.4c0,16.4,10.8,29.4,29.8,29.4c12.6,0,21.5-6,25.3-14l-10.3-6.9
	c-2.2,5.9-6.9,10.2-14.9,10.2c-10,0-15.3-7.4-16-16.5h42.2v-2.7H382.6z M223.5-332.5l23,56.5H261l23-56.5h-14.5L253.8-291L238-332.5
	H223.5z M149.4-261.8c-6.2,0-9.6-3.4-9.6-8.8c0-5,2.9-7.3,10.9-8.9c5.6-1.2,10.6-2.8,12.2-4.6v8.4
	C162.9-266.5,157.2-261.8,149.4-261.8 M181.1-262.6c-2.9,0-4.3-1.9-4.3-4.7v-25.1c0-12.4-8.9-19.2-23.5-19.2
	c-12.2,0-21.7,6.1-24.6,15.8l10.9,4.2c1.9-6,6-10,13.1-10c6.6,0,10.2,3.1,10.2,6.9v0.1c0,3.8-6.6,4.9-16.3,6.8
	c-13.8,2.6-20.4,7.5-20.4,17.7c0,10.6,7.9,17.2,19.2,17.2c8.8,0,15.5-3.3,18.4-8.7c1.1,5.3,5.4,8.3,12,8.3c2.9,0,5.9-0.4,7.6-1.1
	v-8.8C183-262.8,182.2-262.6,181.1-262.6 M15-288.5L25.8-232h13.1l9.9-40.1l9.9,40.1h13.1l10.8-56.5H69.7l-4.8,42.1l-9.5-37.4H42.2
	l-9.5,37.4l-4.8-42.1C27.9-288.5,15-288.5,15-288.5z"/>
<path class="st0" d="M445,112.2c12.6,0,21.4-5.6,21.4-15.9c0-9.7-6.6-13.3-18.4-15.5l-4.6-0.9c-7.8-1.4-11.4-3-11.4-7.9
	c0-4.5,3.8-7.6,11.8-7.6c7.9,0,12.9,2.6,17.1,8.8l6.2-5.5c-4.6-7.4-12.1-11-22.9-11c-12.4,0-21.2,6-21.2,15.9c0,10,8,13.5,18.8,15.5
	l4.8,0.9c6.6,1.2,10.9,2.7,10.9,7.9c0,4.7-3.9,7.5-12.1,7.5c-7.5,0-13.5-2.1-18.4-9.1l-6.1,5.8C426.7,109.1,435.1,112.2,445,112.2
	 M349.7,44.6c8.7,0,14.3,5.4,15.1,14.7h-31.3C335,50.1,341,44.6,349.7,44.6 M349.9,36.7c-15.6,0-25.7,11.4-25.7,27.4
	c0,16.4,10.1,28,25.7,28c10.6,0,18.5-5.3,22.6-14.7l-7.8-2.9c-2.7,6.4-8,9.8-14.9,9.8c-9.5,0-15.9-6.4-16.6-18h40.8
	C374.6,48.8,366,36.7,349.9,36.7 M258.2,49.5c-1.9,5.2-3.4,9.4-5.1,14.5c-1.7-5.2-3.2-9.5-5.1-14.5l-11.7-31.7h-10.1L247.4,71h11.4
	L280,17.8h-10.1L258.2,49.5z M155.2,83.9c-10.1,0-16.9-7.2-16.9-19.5c0-12.3,6.9-19.5,16.9-19.5c5.8,0,10.1,1.8,13.5,6.1v26.9
	C165.3,82.1,161,83.9,155.2,83.9 M183.2,83.1c-4.4,0-5.6-1.8-5.6-6.7V37.8h-8.1l-0.1,5.2c-3.7-4.4-8.7-6.3-15.1-6.3
	c-14.7,0-25,11-25,27.7c0,16.7,10.4,27.7,25,27.7c6.8,0,12-2.2,15.8-7.1c1.5,4.6,5.3,6.3,12.3,6.3h2.2v-8.2H183.2z M76,88.8
	c-0.7,3.8-1.3,7.7-1.8,11.6c-0.9-4-2-7.9-3-11.8L65.4,67h-8.2l-5.8,21.6c-1,3.8-2.1,7.8-3,11.8c-0.5-3.9-1.1-7.7-1.8-11.6l-6.2-31
	h-8.6L43.6,111h8.5l7.1-24.4c0.7-2.5,1.4-5.2,2.1-7.9c0.7,2.8,1.4,5.4,2.1,7.9l7.1,24.4H79l11.8-53.2h-8.6L76,88.8z"/>
</svg>
