<?xml version="1.0" encoding="utf-8"?>
<!-- Generator: Adobe Illustrator 27.0.1, SVG Export Plug-In . SVG Version: 6.00 Build 0)  -->
<svg version="1.1" id="Ebene_1" xmlns="http://www.w3.org/2000/svg" xmlns:xlink="http://www.w3.org/1999/xlink" x="0px" y="0px"
	 viewBox="0 0 955.5 154" style="enable-background:new 0 0 955.5 154;" xml:space="preserve">
<style type="text/css">
	.st0{fill:#F5F0CE;}
</style>
<path class="st0" d="M900.2-121.5h13l-27-34.2l24.5-24.1H898l-31.8,29v-52.4h-10.6v81.6h10.6v-16l12.1-11.2L900.2-121.5z M809.7-150
	v-9.8h-10.1v58.3h10.6v-29c0-12.8,7-19.7,18.4-19.7c0.8,0,1.5,0,2.4,0.1v-10.2C820.7-160.4,813.4-156.9,809.7-150 M743.7-90.1
	c-11.2,0-19.7-8.1-19.7-20.6s8.5-20.5,19.7-20.5c11.2,0,19.6,8,19.6,20.5S754.9-90.1,743.7-90.1 M743.7-80.9
	c17.5,0,30.2-12.4,30.2-29.8s-12.8-29.7-30.2-29.7c-17.5,0-30.4,12.3-30.4,29.7S726.2-80.9,743.7-80.9 M687.6-119.8l-17.4,46.6
	L653-119.8H644l-17.6,46.4l-16.9-46.4h-10l21.7,58.3h10.1l17-44.2l16.8,44.2h10.1l21.8-58.3H687.6z M553-90.1
	c-11.2,0-19.7-8.1-19.7-20.6s8.5-20.5,19.7-20.5c11.2,0,19.6,8,19.6,20.5S564.2-90.1,553-90.1 M553-80.9c17.5,0,30.2-12.4,30.2-29.8
	s-12.8-29.7-30.2-29.7s-30.4,12.3-30.4,29.7S535.5-80.9,553-80.9 M479.6-100.9c10.5,0,19.1-4.4,23.8-12.5l-8-5.1
	c-3.7,5.7-9.5,8.4-15.8,8.4c-11.4,0-20-7.9-20-20.6c0-12.4,8.6-20.5,20-20.5c6.4,0,12.1,2.6,15.8,8.4l8-5.2
	c-4.6-8.1-13.3-12.4-23.8-12.4c-17.9,0-30.8,12.3-30.8,29.7S461.7-100.9,479.6-100.9 M404.8-120.9c15.5,0,25.2-6.7,25.2-17.3
	c0-22.7-37-11.4-37-25.2c0-4.6,4.5-8,13.8-8c5.7,0,11.6,1.2,16.8,4.6l4.5-8.4c-5.1-3.3-13.6-5.3-21.2-5.3c-15,0-24.3,7-24.3,17.5
	c0,23.2,36.9,11.9,36.9,25c0,4.9-4.1,7.9-13.9,7.9c-7.6,0-15.5-2.5-20.5-6.1l-4.4,8.4C385.5-123.8,395.1-120.9,404.8-120.9
	 M333.6-191.5c10.2,0,17.6,6.9,18.7,16.7h-37.4C316-184.6,323.5-191.5,333.6-191.5 M362.4-170.3c0-17.9-12-30-28.8-30
	c-16.8,0-29.3,12.4-29.3,29.7c0,17.4,12.5,29.8,31.3,29.8c9.7,0,17.7-3.3,23-9.5l-5.8-6.8c-4.3,4.7-10,7-16.8,7
	c-11.5,0-19.8-6.8-21.1-17.1h47.3C362.3-168.1,362.4-169.5,362.4-170.3 M278.5-209.8l-20.5,46.8l-20-46.8h-11l25.5,58.3h10.8
	l25.5-58.3H278.5z M179.3-149c-8,0-12.9-3.6-12.9-9.5c0-4.9,3-9,13.4-9h16.3v8.1C193.5-152.6,187.2-149,179.3-149 M181.7-200.4
	c-9.3,0-18,2.6-24.1,7.5l4.4,7.9c4.5-3.8,11.6-6.3,18.5-6.3c10.4,0,15.6,5.2,15.6,14.1v2.1h-16.7c-17.4,0-23.4,7.7-23.4,17.1
	c0,10.1,8.4,17.2,21.6,17.2c9.1,0,15.6-3.1,19.1-8.4v7.7h10v-35.2C206.7-192.7,197.7-200.4,181.7-200.4 M129.4-179.8L112-133.2
	l-17.3-46.6h-8.9l-17.6,46.4l-16.9-46.4h-10l21.7,58.3H73l17-44.2l16.8,44.2H117l21.8-58.3H129.4z"/>
<path class="st0" d="M941.5,90.6h13l-27-34.2L952,32.3h-12.8l-31.8,29V9h-10.6v81.6h10.6V74.7l12.1-11.2L941.5,90.6z M842.7,62.1
	v-9.8h-10.1v58.3h10.6v-29c0-12.8,7-19.7,18.4-19.7c0.8,0,1.5,0,2.4,0.1V51.8C853.7,51.8,846.4,55.3,842.7,62.1 M768.5,122.1
	c-11.2,0-19.7-8.1-19.7-20.6S757.2,81,768.5,81c11.2,0,19.6,8,19.6,20.5S779.7,122.1,768.5,122.1 M768.5,131.3
	c17.5,0,30.2-12.4,30.2-29.8s-12.8-29.7-30.2-29.7c-17.5,0-30.4,12.3-30.4,29.7S751,131.3,768.5,131.3 M704.1,92.3L686.7,139
	l-17.3-46.6h-8.9l-17.6,46.4L626,92.3h-10l21.7,58.3h10.1l17-44.2l16.8,44.2h10.1l21.8-58.3H704.1z M561.2,122.1
	c-11.2,0-19.7-8.1-19.7-20.6S550,81,561.2,81c11.2,0,19.6,8,19.6,20.5S572.4,122.1,561.2,122.1 M561.2,131.3
	c17.5,0,30.2-12.4,30.2-29.8s-12.8-29.7-30.2-29.7s-30.4,12.3-30.4,29.7S543.7,131.3,561.2,131.3 M479.6,111.3
	c10.5,0,19.1-4.4,23.8-12.5l-8-5.1c-3.7,5.7-9.5,8.4-15.8,8.4c-11.4,0-20-7.9-20-20.6c0-12.4,8.6-20.5,20-20.5
	c6.4,0,12.1,2.6,15.8,8.4l8-5.2c-4.6-8.1-13.3-12.4-23.8-12.4c-17.9,0-30.8,12.3-30.8,29.7S461.7,111.3,479.6,111.3 M396.5,91.3
	c15.5,0,25.2-6.7,25.2-17.3c0-22.7-37-11.4-37-25.2c0-4.6,4.5-8,13.8-8c5.7,0,11.6,1.2,16.8,4.6l4.5-8.4c-5.1-3.3-13.6-5.3-21.2-5.3
	c-15,0-24.3,7-24.3,17.5c0,23.2,36.8,11.9,36.8,25c0,4.9-4.1,7.9-13.9,7.9c-7.6,0-15.5-2.5-20.5-6.1l-4.4,8.4
	C377.3,88.3,386.9,91.3,396.5,91.3 M317.1,20.7c10.2,0,17.6,6.9,18.7,16.7h-37.4C299.5,27.5,307,20.7,317.1,20.7 M345.9,41.8
	c0-17.9-12-30-28.8-30c-16.8,0-29.3,12.4-29.3,29.7c0,17.4,12.5,29.8,31.3,29.8c9.7,0,17.7-3.3,23-9.5l-5.8-6.8
	c-4.3,4.7-10,7-16.8,7c-11.5,0-19.8-6.8-21.1-17.1h47.3C345.8,44,345.9,42.7,345.9,41.8 M253.8,2.3l-20.5,46.8l-20-46.8h-11
	l25.5,58.3h10.8l25.5-58.3H253.8z M146.3,63.2c-8,0-12.9-3.6-12.9-9.5c0-4.9,3-9,13.4-9h16.3v8.1C160.5,59.5,154.2,63.2,146.3,63.2
	 M148.7,11.8c-9.3,0-18,2.6-24.1,7.5l4.4,7.9c4.5-3.8,11.6-6.3,18.5-6.3c10.4,0,15.6,5.2,15.6,14.1v2.1h-16.7
	c-17.4,0-23.4,7.7-23.4,17.1c0,10.1,8.4,17.2,21.6,17.2c9.1,0,15.6-3.1,19.1-8.4v7.7h10V35.4C173.7,19.5,164.7,11.8,148.7,11.8
	 M88.1,32.3L70.7,79L53.5,32.3h-8.9L27,78.8L10,32.3H0l21.7,58.3h10.1l17-44.2l16.8,44.2h10.1l21.8-58.3H88.1z"/>
</svg>
