<?xml version="1.0" encoding="utf-8"?>
<!-- Generator: Adobe Illustrator 27.0.1, SVG Export Plug-In . SVG Version: 6.00 Build 0)  -->
<svg version="1.1" id="Ebene_1" xmlns="http://www.w3.org/2000/svg" xmlns:xlink="http://www.w3.org/1999/xlink" x="0px" y="0px"
	 viewBox="0 0 499 130" style="enable-background:new 0 0 499 130;" xml:space="preserve">
<style type="text/css">
	.st0{fill:#FEF8D3;}
</style>
<g>
	<path class="st0" d="M469.1,130.2c18.3,0,29.8-7.9,29.8-20.4c0-26.8-43.7-13.5-43.7-29.8c0-5.5,5.3-9.5,16.2-9.5
		c6.8,0,13.7,1.4,19.9,5.5l5.3-9.9c-6-3.9-16.1-6.2-25.1-6.2c-17.7,0-28.7,8.3-28.7,20.7c0,27.4,43.5,14,43.5,29.5
		c0,5.9-4.8,9.4-16.4,9.4c-9,0-18.3-3-24.2-7.1l-5.2,9.9C446.3,126.6,457.6,130.2,469.1,130.2 M370,40.4c12.1,0,20.8,8.2,22.1,19.8
		h-44.2C349.2,48.4,358,40.4,370,40.4 M404.1,65.3c0-21.2-14.2-35.5-34.1-35.5s-34.6,14.7-34.6,35.1c0,20.5,14.8,35.2,37,35.2
		c11.4,0,20.9-3.9,27.2-11.2l-6.9-8.1c-5.1,5.6-11.8,8.3-19.9,8.3c-13.7,0-23.4-8.1-25-20.2h55.9C403.9,67.9,404.1,66.4,404.1,65.3
		 M297.7,0.5l-24.2,55.2L249.9,0.5h-13l30.2,68.9h12.7L310,0.5H297.7z M175.9,90.5c-9.5,0-15.2-4.3-15.2-11.2
		c0-5.8,3.5-10.7,15.9-10.7h19.2v9.6C192.7,86.2,185.3,90.5,175.9,90.5 M178.8,29.8c-11.1,0-21.3,3.1-28.5,8.8l5.2,9.4
		c5.3-4.6,13.7-7.4,21.8-7.4c12.4,0,18.5,6.1,18.5,16.6v2.5h-19.8c-20.5,0-27.7,9.1-27.7,20.2c0,12,9.9,20.3,25.5,20.3
		c10.8,0,18.5-3.6,22.6-9.9v9.1h11.8V57.8C208.3,38.9,197.6,29.8,178.8,29.8 M104.6,60.5L84,115.6L63.6,60.5H53.1l-20.8,54.9
		l-20-54.9H0.4L26,129.4h12l20.1-52.3L78,129.4h12l25.7-68.9H104.6z"/>
</g>
</svg>
