<?xml version="1.0" encoding="utf-8"?>
<!-- Generator: Adobe Illustrator 27.0.1, SVG Export Plug-In . SVG Version: 6.00 Build 0)  -->
<svg version="1.1" id="Ebene_1" xmlns="http://www.w3.org/2000/svg" xmlns:xlink="http://www.w3.org/1999/xlink" x="0px" y="0px"
	 viewBox="0 0 1366 154" style="enable-background:new 0 0 1366 154;" xml:space="preserve">
<style type="text/css">
	.st0{fill:#F5F0CE;}
</style>
<path class="st0" d="M655.1,109.1c11.6,0,18.9-5,18.9-12.9c0-17-27.7-8.6-27.7-18.9c0-3.5,3.4-6,10.3-6c4.3,0,8.6,0.9,12.6,3.5
	l3.4-6.3c-3.8-2.5-10.2-4-15.9-4c-11.2,0-18.2,5.3-18.2,13.1c0,17.4,27.6,8.9,27.6,18.7c0,3.7-3,5.9-10.4,5.9
	c-5.7,0-11.6-1.9-15.3-4.5l-3.3,6.3C640.7,106.9,647.9,109.1,655.1,109.1 M592.4,90.3c7.7,0,13.2,5.2,14,12.5h-28
	C579.2,95.4,584.8,90.3,592.4,90.3 M614,106.1c0-13.4-9-22.5-21.6-22.5c-12.6,0-21.9,9.3-21.9,22.2c0,13,9.4,22.3,23.5,22.3
	c7.2,0,13.3-2.5,17.2-7.1l-4.4-5.1c-3.2,3.5-7.5,5.3-12.6,5.3c-8.6,0-14.8-5.1-15.8-12.8h35.4C613.9,107.7,614,106.7,614,106.1
	 M541.7,103l-15.3,35l-15-35h-8.2l19.1,43.6h8.1l19.1-43.6H541.7z M458,122c-6,0-9.6-2.7-9.6-7.1c0-3.7,2.2-6.8,10-6.8h12.2v6.1
	C468.6,119.3,463.9,122,458,122 M459.8,83.6c-7,0-13.5,2-18,5.6l3.3,5.9c3.4-2.9,8.6-4.7,13.8-4.7c7.8,0,11.7,3.9,11.7,10.5v1.6H458
	c-13,0-17.5,5.8-17.5,12.8c0,7.6,6.3,12.8,16.1,12.8c6.8,0,11.7-2.3,14.3-6.3v5.8h7.5v-26.3C478.5,89.3,471.7,83.6,459.8,83.6
	 M412.8,65l-13,34.9L386.8,65h-6.7L367,99.7L354.3,65h-7.5l16.2,43.6h7.6l12.8-33.1l12.6,33.1h7.6L419.8,65H412.8z M304.1,90.1
	c11.6,0,18.9-5,18.9-12.9c0-17-27.7-8.6-27.7-18.9c0-3.5,3.4-6,10.3-6c4.3,0,8.6,0.9,12.6,3.5l3.4-6.3c-3.8-2.5-10.2-4-15.9-4
	c-11.2,0-18.2,5.3-18.2,13.1c0,17.4,27.6,8.9,27.6,18.7c0,3.7-3,5.9-10.4,5.9c-5.7,0-11.6-1.9-15.3-4.5l-3.3,6.3
	C289.7,87.9,296.8,90.1,304.1,90.1 M241.4,33.3c7.7,0,13.2,5.2,14,12.5h-28C228.2,38.4,233.8,33.3,241.4,33.3 M262.9,49.1
	c0-13.4-9-22.5-21.6-22.5c-12.6,0-21.9,9.3-21.9,22.2c0,13,9.4,22.3,23.5,22.3c7.2,0,13.3-2.5,17.2-7.1l-4.4-5.1
	c-3.2,3.5-7.5,5.3-12.6,5.3c-8.6,0-14.8-5.1-15.8-12.8h35.4C262.8,50.7,262.9,49.7,262.9,49.1 M195.6,8l-15.3,35l-15-35H157
	l19.1,43.6h8.1L203.3,8H195.6z M118.4,65c-6,0-9.6-2.7-9.6-7.1c0-3.7,2.2-6.8,10-6.8H131v6.1C129.1,62.3,124.4,65,118.4,65
	 M120.2,26.6c-7,0-13.5,2-18,5.6l3.3,5.9c3.4-2.9,8.6-4.7,13.8-4.7c7.8,0,11.7,3.9,11.7,10.5v1.6h-12.5c-13,0-17.5,5.8-17.5,12.8
	c0,7.6,6.3,12.8,16.1,12.8c6.8,0,11.7-2.3,14.3-6.3v5.8h7.5V44.3C138.9,32.4,132.2,26.6,120.2,26.6 M73.2,46l-13,34.9L47.3,46h-6.7
	L27.5,80.7L14.8,46H7.3l16.2,43.6h7.6l12.8-33.1l12.6,33.1H64L80.3,46H73.2z"/>
<path class="st0" d="M1339.1,109.1c11.6,0,18.9-5,18.9-12.9c0-17-27.7-8.6-27.7-18.9c0-3.5,3.4-6,10.3-6c4.3,0,8.6,0.9,12.6,3.5
	l3.4-6.3c-3.8-2.5-10.2-4-15.9-4c-11.2,0-18.2,5.3-18.2,13.1c0,17.4,27.6,8.9,27.6,18.7c0,3.7-3,5.9-10.4,5.9
	c-5.7,0-11.6-1.9-15.3-4.5l-3.3,6.3C1324.7,106.9,1331.9,109.1,1339.1,109.1 M1276.4,90.3c7.7,0,13.2,5.2,14,12.5h-28
	C1263.2,95.4,1268.8,90.3,1276.4,90.3 M1298,106.1c0-13.4-9-22.5-21.6-22.5s-21.9,9.3-21.9,22.2c0,13,9.4,22.3,23.5,22.3
	c7.2,0,13.3-2.5,17.2-7.1l-4.4-5.1c-3.2,3.5-7.5,5.3-12.6,5.3c-8.6,0-14.8-5.1-15.8-12.8h35.4C1297.9,107.7,1298,106.7,1298,106.1
	 M1225.7,103l-15.3,35l-15-35h-8.2l19.1,43.6h8.1l19.1-43.6H1225.7z M1141.9,122c-6,0-9.6-2.7-9.6-7.1c0-3.7,2.2-6.8,10-6.8h12.2
	v6.1C1152.6,119.3,1147.9,122,1141.9,122 M1143.7,83.6c-7,0-13.5,2-18,5.6l3.3,5.9c3.4-2.9,8.6-4.7,13.8-4.7
	c7.8,0,11.7,3.9,11.7,10.5v1.6H1142c-13,0-17.5,5.8-17.5,12.8c0,7.6,6.3,12.8,16.1,12.8c6.8,0,11.7-2.3,14.3-6.3v5.8h7.5v-26.3
	C1162.4,89.3,1155.7,83.6,1143.7,83.6 M1096.7,65l-13,34.9L1070.8,65h-6.7L1051,99.7L1038.3,65h-7.5l16.2,43.6h7.6l12.8-33.1
	l12.6,33.1h7.6l16.3-43.6H1096.7z M988.1,90.1c11.6,0,18.9-5,18.9-12.9c0-17-27.7-8.6-27.7-18.9c0-3.5,3.4-6,10.3-6
	c4.3,0,8.6,0.9,12.6,3.5l3.4-6.3c-3.8-2.5-10.2-4-15.9-4c-11.2,0-18.2,5.3-18.2,13.1c0,17.4,27.6,8.9,27.6,18.7
	c0,3.7-3,5.9-10.4,5.9c-5.7,0-11.6-1.9-15.3-4.5L970,85C973.7,87.9,980.8,90.1,988.1,90.1 M925.3,33.3c7.7,0,13.2,5.2,14,12.5h-28
	C912.2,38.4,917.8,33.3,925.3,33.3 M946.9,49.1c0-13.4-9-22.5-21.6-22.5c-12.6,0-21.9,9.3-21.9,22.2c0,13,9.4,22.3,23.5,22.3
	c7.2,0,13.3-2.5,17.2-7.1l-4.4-5.1c-3.2,3.5-7.5,5.3-12.6,5.3c-8.6,0-14.8-5.1-15.8-12.8h35.4C946.8,50.7,946.9,49.7,946.9,49.1
	 M879.6,8l-15.3,35l-15-35H841l19.1,43.6h8.1L887.3,8H879.6z M802.4,65c-6,0-9.6-2.7-9.6-7.1c0-3.7,2.2-6.8,10-6.8H815v6.1
	C813,62.3,808.3,65,802.4,65 M804.2,26.6c-7,0-13.5,2-18,5.6l3.3,5.9c3.4-2.9,8.6-4.7,13.8-4.7c7.8,0,11.7,3.9,11.7,10.5v1.6h-12.5
	c-13,0-17.5,5.8-17.5,12.8c0,7.6,6.3,12.8,16.1,12.8c6.8,0,11.7-2.3,14.3-6.3v5.8h7.5V44.3C822.9,32.4,816.2,26.6,804.2,26.6
	 M757.2,46l-13,34.9L731.3,46h-6.7l-13.2,34.7L698.8,46h-7.5l16.2,43.6h7.6l12.8-33.1l12.6,33.1h7.6L764.3,46H757.2z"/>
</svg>
